<svg width="48" height="48" viewBox="0 0 48 48" fill="none" xmlns="http://www.w3.org/2000/svg">
<g clip-path="url(#clip0_260_1600)">
<path d="M24.0004 12.2625C25.8829 12.2625 27.4129 10.7325 27.4129 8.85C27.4129 6.9675 25.8829 5.4375 24.0004 5.4375C22.1179 5.4375 20.5879 6.9675 20.5879 8.85C20.5879 10.7325 22.1179 12.2625 24.0004 12.2625ZM24.0004 6.8925C25.0804 6.8925 25.9579 7.77 25.9579 8.85C25.9579 9.93 25.0804 10.8075 24.0004 10.8075C22.9204 10.8075 22.0429 9.93 22.0429 8.85C22.0429 7.77 22.9204 6.8925 24.0004 6.8925Z" fill="#6CC118"/>
<path d="M47.2725 42.8625H45.1125V40.05C45.1125 39.645 44.79 39.3225 44.385 39.3225H41.535V37.5825C41.535 37.1775 41.2125 36.8549 40.8075 36.8549H39.87V19.755H40.8075C41.2125 19.755 41.535 19.4325 41.535 19.0275V17.2875H46.29C46.695 17.2875 47.0175 16.965 47.0175 16.56V14.6325C47.0175 14.3775 46.8825 14.145 46.665 14.01L24.3675 0.509951C24.135 0.367451 23.8425 0.367451 23.6175 0.509951L1.32 14.01C1.1025 14.145 0.9675 14.3775 0.9675 14.6325V16.56C0.9675 16.965 1.29 17.2875 1.695 17.2875H6.45V19.0275C6.45 19.4325 6.7725 19.755 7.1775 19.755H8.115V36.8549H7.185C6.78 36.8549 6.4575 37.1775 6.4575 37.5825V39.3225H3.6075C3.2025 39.3225 2.88 39.645 2.88 40.05V42.8625H0.7275C0.3225 42.8625 0 43.185 0 43.59V46.8675C0 47.2725 0.3225 47.595 0.7275 47.595H47.2725C47.6775 47.595 48 47.2725 48 46.8675V43.59C48 43.185 47.6775 42.8625 47.2725 42.8625ZM40.0875 39.3225H33.885V38.31H34.815H34.8225H34.83H39.1425H39.15H39.1575H40.0875V39.3225ZM28.5525 39.3225V37.5825C28.5525 37.1775 28.23 36.8549 27.825 36.8549H26.8875V19.755H27.825C28.23 19.755 28.5525 19.4325 28.5525 19.0275V17.2875H32.43V19.0275C32.43 19.4325 32.7525 19.755 33.1575 19.755H34.095V36.8549H33.1575C32.7525 36.8549 32.43 37.1775 32.43 37.5825V39.3225H28.5525ZM20.895 39.3225V38.31H21.825H21.8325H21.84H26.1525H26.16H26.1675H27.0975V39.3225H20.895ZM15.57 39.3225V37.5825C15.57 37.1775 15.2475 36.8549 14.8425 36.8549H13.905V19.755H14.8425C15.2475 19.755 15.57 19.4325 15.57 19.0275V17.2875H19.4475V19.0275C19.4475 19.4325 19.77 19.755 20.175 19.755H21.1125V36.8549H20.175C19.77 36.8549 19.4475 37.1775 19.4475 37.5825V39.3225H15.57ZM27.0975 17.2875V18.2999H20.895V17.2875H27.0975ZM22.5675 36.8549V19.755H25.44V36.8549H22.5675ZM38.4225 36.8549H35.55V19.755H38.4225V36.8549ZM40.0875 18.3075H33.885V17.295H40.0875V18.3075ZM2.43 15.045L24 1.97995L45.57 15.045V15.8325H2.43V15.045ZM7.9125 17.2875H14.115V18.2999H7.9125V17.2875ZM9.5775 19.7625H12.45V36.8625H9.5775V19.7625ZM7.9125 38.31H8.8425H8.85H8.8575H13.17H13.1775H13.185H14.115V39.3225H7.9125V38.31ZM4.335 40.7775H43.6575V42.8625H4.335V40.7775ZM46.545 46.14H1.455V44.3175H46.545V46.14Z" fill="#6CC118"/>
</g>
<defs>
<clipPath id="clip0_260_1600">
<rect width="48" height="48" fill="white"/>
</clipPath>
</defs>
</svg>
