<svg width="48" height="48" viewBox="0 0 48 48" fill="none" xmlns="http://www.w3.org/2000/svg">
<g clip-path="url(#clip0_260_1595)">
<path fill-rule="evenodd" clip-rule="evenodd" d="M4.01401 27.4946C3.70991 27.6371 3.37818 27.711 3.04234 27.7109L3.04215 27.7109C2.74152 27.711 2.44383 27.6518 2.16608 27.5367C1.88832 27.4217 1.63595 27.2531 1.42337 27.0405C1.21079 26.8279 1.04217 26.5756 0.927136 26.2978C0.812101 26.02 0.752905 25.7224 0.75293 25.4217L0.75293 20.5663C0.75293 18.1602 2.70352 16.2097 5.10964 16.2097L16.7317 16.2097L16.7317 6.49636C16.7317 5.59424 17.463 4.86304 18.365 4.86304L40.6952 4.86304C41.5973 4.86304 42.3286 5.59424 42.3286 6.49636L42.3286 25.1634C42.3286 26.0654 41.5973 26.7967 40.6952 26.7967L18.365 26.7967C17.463 26.7967 16.7317 26.0654 16.7317 25.1634L16.7317 20.7884L12.9451 20.7884C12.8671 20.7884 12.7921 20.8186 12.7358 20.8725C12.6795 20.9265 12.6463 21.0002 12.643 21.0781L12.6466 21.0781L12.6428 37.4677C12.6428 38.9893 11.5068 40.1857 10.1564 40.1857L10.1559 40.1857C9.44168 40.1857 8.78738 39.851 8.3295 39.3105C8.3151 39.3275 8.3006 39.3444 8.28582 39.361C7.81317 39.8935 7.16893 40.1857 6.5006 40.1857C5.83227 40.1857 5.18804 39.8935 4.71538 39.361C4.26926 38.8583 4.01401 38.1782 4.01401 37.4674L4.01401 27.4946ZM18.0493 16.2975C18.4237 16.4043 18.7648 16.6048 19.0401 16.8802C19.4694 17.3094 19.7106 17.7527 19.7106 18.4991C19.7106 19.0388 19.4694 19.6885 19.0401 20.1178C18.7648 20.3932 18.4238 20.5938 18.0493 20.7006L18.0493 25.1634C18.0493 25.2471 18.0826 25.3274 18.1418 25.3866C18.201 25.4458 18.2813 25.479 18.365 25.479L40.6952 25.479C40.779 25.479 40.8593 25.4458 40.9185 25.3866C40.9777 25.3274 41.0109 25.2471 41.0109 25.1634L41.0109 6.49636C41.0109 6.41263 40.9777 6.33234 40.9185 6.27314C40.8593 6.21394 40.779 6.18068 40.6952 6.18068L18.365 6.18068C18.2813 6.18068 18.201 6.21394 18.1418 6.27314C18.0826 6.33234 18.0493 6.41263 18.0493 6.49636L18.0493 16.2975ZM11.3252 26.0168L11.3252 21.0907C11.3252 20.196 12.0504 19.4708 12.9451 19.4708L17.4214 19.4708C17.679 19.4708 17.9261 19.3684 18.1083 19.1861C18.2905 19.0039 18.3929 18.7282 18.3929 18.4991C18.3929 18.1823 18.2906 17.9941 18.1083 17.8118C18.0181 17.7216 17.911 17.6501 17.7931 17.6012C17.6753 17.5524 17.5489 17.5273 17.4214 17.5273L5.10964 17.5273C3.43124 17.5273 2.07058 18.8879 2.07058 20.5663L2.07058 25.4217C2.0706 25.6791 2.17278 25.926 2.35467 26.1082C2.53657 26.2904 2.78332 26.3929 3.04074 26.3933L3.05034 26.3933C3.29439 26.3913 3.52876 26.2976 3.70683 26.1307C3.8849 25.9638 3.99363 25.736 4.01138 25.4926L4.01138 21.059C4.01138 20.6954 4.30662 20.4002 4.6702 20.4002C5.03387 20.4002 5.32902 20.6954 5.32902 21.059L5.32902 25.4217L5.33166 25.4217C5.33166 25.4632 5.33053 25.5046 5.32827 25.546L5.32771 25.5567C5.31844 25.7122 5.29341 25.8664 5.25298 26.0168L11.3252 26.0168ZM24.4921 10.8815C24.4921 11.5144 23.979 12.0276 23.3461 12.0276L20.7735 12.0276C20.1406 12.0276 19.6275 11.5144 19.6275 10.8815L19.6275 8.30897C19.6275 7.67603 20.1406 7.1629 20.7735 7.1629L23.3461 7.1629C23.979 7.1629 24.4921 7.67603 24.4921 8.30897L24.4921 10.8815ZM20.9451 10.7099L23.1745 10.7099L23.1745 8.48054L20.9451 8.48054L20.9451 10.7099ZM26.9399 9.11725C26.5764 9.11725 26.2811 8.822 26.2811 8.45843C26.2811 8.09476 26.5764 7.7996 26.9399 7.7996L31.7952 7.7996C32.1588 7.7996 32.454 8.09476 32.454 8.45843C32.454 8.822 32.1588 9.11725 31.7952 9.11725L26.9399 9.11725ZM24.4921 17.1161C24.4921 17.7491 23.979 18.2621 23.3461 18.2621L20.7735 18.2621C20.1406 18.2621 19.6275 17.7491 19.6275 17.1161L19.6275 14.5436C19.6275 13.9107 20.1406 13.3975 20.7735 13.3975L23.3461 13.3975C23.979 13.3975 24.4921 13.9107 24.4921 14.5436L24.4921 17.1161ZM20.9451 16.9444L23.1745 16.9444L23.1745 14.7152L20.9451 14.7152L20.9451 16.9444ZM24.4921 23.3507C24.4921 23.9836 23.979 24.4967 23.3461 24.4967L20.7735 24.4967C20.1406 24.4967 19.6275 23.9836 19.6275 23.3507L19.6275 20.7782C19.6275 20.1453 20.1406 19.6322 20.7735 19.6322L23.3461 19.6322C23.979 19.6322 24.4921 20.1453 24.4921 20.7782L24.4921 23.3507ZM20.9451 23.1791L23.1745 23.1791L23.1745 20.9498L20.9451 20.9498L20.9451 23.1791ZM26.9399 15.3518C26.5764 15.3518 26.2811 15.0566 26.2811 14.693C26.2811 14.3294 26.5764 14.0341 26.9399 14.0341L31.7952 14.0341C32.1588 14.0341 32.454 14.3294 32.454 14.693C32.454 15.0566 32.1588 15.3518 31.7952 15.3518L26.9399 15.3518ZM26.9399 21.5864C26.5764 21.5864 26.2811 21.2913 26.2811 20.9276C26.2811 20.564 26.5764 20.2688 26.9399 20.2688L31.7952 20.2688C32.1588 20.2688 32.454 20.564 32.454 20.9276C32.454 21.2913 32.1588 21.5864 31.7952 21.5864L26.9399 21.5864ZM26.9399 17.6255C26.5764 17.6255 26.2811 17.3302 26.2811 16.9667C26.2811 16.6031 26.5764 16.3078 26.9399 16.3078L35.9768 16.3078C36.3404 16.3078 36.6357 16.6031 36.6357 16.9667C36.6357 17.3302 36.3404 17.6255 35.9768 17.6255L26.9399 17.6255ZM26.9399 11.3908C26.5764 11.3908 26.2811 11.0957 26.2811 10.732C26.2811 10.3684 26.5764 10.0732 26.9399 10.0732L35.9768 10.0732C36.3404 10.0732 36.6357 10.3684 36.6357 10.732C36.6357 11.0957 36.3404 11.3908 35.9768 11.3908L26.9399 11.3908ZM26.9399 23.8601C26.5764 23.8601 26.2811 23.5649 26.2811 23.2013C26.2811 22.8376 26.5764 22.5425 26.9399 22.5425L35.9768 22.5425C36.3404 22.5425 36.6357 22.8376 36.6357 23.2013C36.6357 23.5649 36.3404 23.8601 35.9768 23.8601L26.9399 23.8601ZM8.98719 37.4677C8.98719 38.2209 9.48695 38.8677 10.1556 38.868L10.1564 38.868C10.8251 38.868 11.3252 38.2211 11.3252 37.4677L11.3252 27.3345L5.33166 27.3345L5.33166 37.4674C5.33166 37.8489 5.46145 38.2165 5.70088 38.4864C5.91387 38.7263 6.19942 38.868 6.5006 38.868C6.80178 38.868 7.08733 38.7263 7.30032 38.4864C7.53966 38.2166 7.66954 37.8491 7.66954 37.4677L7.66954 30.4636C7.66954 30.0999 7.96479 29.8048 8.32837 29.8048C8.69204 29.8048 8.98719 30.0999 8.98719 30.4636L8.98719 37.4674L8.98719 37.4677ZM8.32837 7.49014C10.4705 7.49014 12.2096 9.22925 12.2096 11.3714C12.2096 13.5135 10.4705 15.2526 8.32837 15.2526C6.18625 15.2526 4.44714 13.5135 4.44714 11.3714C4.44714 9.22925 6.18625 7.49014 8.32837 7.49014ZM8.32837 8.80779C6.9135 8.80779 5.76479 9.9565 5.76479 11.3714C5.76479 12.7862 6.9135 13.9349 8.32837 13.9349C9.74324 13.9349 10.8919 12.7862 10.8919 11.3714C10.8919 9.9565 9.74324 8.80779 8.32837 8.80779ZM42.2504 29.4568C43.8418 29.4568 45.1337 30.7488 45.1337 32.3401C45.1337 33.9315 43.8418 35.2235 42.2504 35.2235C40.6591 35.2235 39.3671 33.9315 39.3671 32.3401C39.3671 30.7488 40.6591 29.4568 42.2504 29.4568ZM42.2504 30.7745C41.3863 30.7745 40.6847 31.476 40.6847 32.3401C40.6847 33.2042 41.3863 33.9059 42.2504 33.9059C43.1145 33.9059 43.8161 33.2042 43.8161 32.3401C43.8161 31.476 43.1145 30.7745 42.2504 30.7745ZM30.6582 29.4568C32.2495 29.4568 33.5415 30.7488 33.5415 32.3401C33.5415 33.9315 32.2495 35.2235 30.6582 35.2235C29.0668 35.2235 27.7749 33.9315 27.7749 32.3401C27.7749 30.7488 29.0668 29.4568 30.6582 29.4568ZM30.6582 30.7745C29.7941 30.7745 29.0925 31.476 29.0925 32.3401C29.0925 33.2042 29.7941 33.9059 30.6582 33.9059C31.5223 33.9059 32.2239 33.2042 32.2239 32.3401C32.2239 31.476 31.5223 30.7745 30.6582 30.7745ZM19.0659 29.4568C20.6572 29.4568 21.9493 30.7488 21.9493 32.3401C21.9493 33.9315 20.6572 35.2235 19.0659 35.2235C17.4745 35.2235 16.1826 33.9315 16.1826 32.3401C16.1826 30.7488 17.4745 29.4568 19.0659 29.4568ZM19.0659 30.7745C18.2018 30.7745 17.5002 31.476 17.5002 32.3401C17.5002 33.2042 18.2018 33.9059 19.0659 33.9059C19.9301 33.9059 20.6316 33.2042 20.6316 32.3401C20.6316 31.476 19.9301 30.7745 19.0659 30.7745ZM47.2471 40.6812C47.2471 41.3839 46.803 41.9948 45.9889 42.4164C45.0819 42.8861 43.6677 43.1371 42.2504 43.1371C40.8331 43.1371 39.419 42.8861 38.5119 42.4164C37.6978 41.9948 37.2538 41.3839 37.2538 40.6812C37.2538 37.9223 39.4903 35.6856 42.2504 35.6856C45.0093 35.6856 47.2471 37.9223 47.2471 40.6812ZM45.9294 40.6812C45.9294 38.65 44.2817 37.0033 42.2504 37.0033C40.2183 37.0033 38.5715 38.65 38.5715 40.6812C38.5715 40.9389 38.8193 41.0917 39.1178 41.2463C39.8765 41.6392 41.0649 41.8195 42.2504 41.8195C43.4359 41.8195 44.6243 41.6392 45.383 41.2463C45.6816 41.0917 45.9294 40.9389 45.9294 40.6812ZM35.6548 40.6812C35.6548 41.3839 35.2107 41.9948 34.3967 42.4164C33.4896 42.8861 32.0754 43.1371 30.6582 43.1371C29.2409 43.1371 27.8267 42.8861 26.9196 42.4164C26.1056 41.9948 25.6615 41.3839 25.6615 40.6812C25.6615 37.9223 27.8981 35.6856 30.6582 35.6856C33.417 35.6856 35.6548 37.9223 35.6548 40.6812ZM34.3371 40.6812C34.3371 38.65 32.6895 37.0033 30.6582 37.0033C28.626 37.0033 26.9792 38.65 26.9792 40.6812C26.9792 40.9389 27.227 41.0917 27.5255 41.2463C28.2842 41.6392 29.4727 41.8195 30.6582 41.8195C31.8436 41.8195 33.0321 41.6392 33.7908 41.2463C34.0893 41.0917 34.3371 40.9389 34.3371 40.6812ZM24.0625 40.6812C24.0625 41.3839 23.6185 41.9948 22.8044 42.4164C21.8973 42.8861 20.4832 43.1371 19.0659 43.1371C17.6486 43.1371 16.2344 42.8861 15.3274 42.4164C14.5133 41.9948 14.0693 41.3839 14.0693 40.6812C14.0693 37.9223 16.3059 35.6856 19.0659 35.6856C21.8248 35.6856 24.0625 37.9223 24.0625 40.6812ZM22.7448 40.6812C22.7448 38.65 21.0972 37.0033 19.0659 37.0033C17.0338 37.0033 15.3869 38.65 15.3869 40.6812C15.3869 40.9389 15.6347 41.0917 15.9334 41.2463C16.692 41.6392 17.8805 41.8195 19.0659 41.8195C20.2514 41.8195 21.4398 41.6392 22.1985 41.2463C22.497 41.0917 22.7448 40.9389 22.7448 40.6812Z" fill="#6CC118"/>
</g>
<defs>
<clipPath id="clip0_260_1595">
<rect width="48" height="48" fill="white"/>
</clipPath>
</defs>
</svg>
