<svg width="173" height="357" viewBox="0 0 173 357" fill="none" xmlns="http://www.w3.org/2000/svg">
<path d="M26.8023 352.918H17.8493L14.5293 312.616H25.0723L26.8023 352.918Z" fill="#263238"/>
<path d="M104.393 352.918H113.347L116.666 312.616H106.123L104.393 352.918Z" fill="#263238"/>
<path d="M122.818 317.718L7.58198 320.423L4.07498 245.992C3.73198 238.704 9.54797 232.607 16.844 232.607H115.026C122.434 232.607 128.291 238.885 127.778 246.275L122.818 317.718Z" fill="#3F446F"/>
<path d="M128.725 245.737C128.725 245.746 128.616 245.755 128.403 245.765C128.162 245.772 127.851 245.781 127.458 245.793C126.593 245.806 125.376 245.824 123.826 245.848C120.637 245.86 116.081 245.876 110.467 245.896C99.1883 245.915 83.6043 245.788 66.4053 246.187C49.1963 246.759 33.6003 246.661 22.3233 246.49C16.6833 246.401 12.1203 246.291 8.96727 246.196C7.41827 246.143 6.20227 246.101 5.33727 246.072C4.94527 246.053 4.63427 246.038 4.39327 246.026C4.18027 246.013 4.07227 246.001 4.07227 245.992C4.07227 245.983 4.18127 245.976 4.39427 245.972C4.63527 245.971 4.94727 245.969 5.33927 245.966C6.20427 245.972 7.42127 245.981 8.97127 245.992C12.1603 246.023 16.7143 246.066 22.3273 246.12C33.6063 246.197 49.1863 246.236 66.3923 245.665C83.6053 245.266 99.1903 245.451 110.468 245.526C116.082 245.575 120.636 245.616 123.826 245.643C125.376 245.661 126.593 245.676 127.458 245.686C127.85 245.696 128.162 245.703 128.403 245.709C128.616 245.719 128.725 245.728 128.725 245.737Z" fill="#263238"/>
<path d="M46.1081 233.771C46.1401 233.945 42.4971 234.007 38.6261 236.016C34.7261 237.972 32.5391 240.885 32.4171 240.757C32.3711 240.723 32.8431 239.956 33.8441 238.906C34.8391 237.856 36.4111 236.566 38.3901 235.552C40.3721 234.545 42.3381 234.029 43.7721 233.84C45.2091 233.646 46.1081 233.714 46.1081 233.771Z" fill="#263238"/>
<path d="M93.505 98.4424L107.593 124.175L128.229 112.633L138.264 115.945C138.264 115.945 112.946 143.396 108.838 144.794C104.731 146.192 96.952 146.447 92.504 140.882C88.454 135.815 76.668 109.207 76.668 109.207L93.505 98.4424Z" fill="#FFBE9D"/>
<path d="M151.5 81.6444C151.133 81.1904 150.556 80.9614 149.978 81.0414L140.164 82.3914C139.303 82.5244 138.54 83.0174 138.065 83.7474L117.686 115.069L119.253 115.945L130.104 115.604L151.808 82.0284L151.5 81.6444Z" fill="#263238"/>
<path d="M144.554 85.7124C144.763 85.8964 145.131 85.8184 145.376 85.5394C145.62 85.2604 145.649 84.8854 145.44 84.7024C145.231 84.5194 144.863 84.5964 144.618 84.8754C144.373 85.1544 144.345 85.5294 144.554 85.7124Z" fill="white"/>
<path d="M151.808 82.0264C151.813 82.0674 151.137 82.1984 149.911 82.4014C148.584 82.6064 146.831 82.8784 144.71 83.2064C143.601 83.3694 142.399 83.5454 141.115 83.7344C140.497 83.7904 139.949 84.1094 139.598 84.6274C139.221 85.2124 138.834 85.8124 138.437 86.4274C136.832 88.9024 135.076 91.6084 133.233 94.4494C129.526 100.133 126.143 105.26 123.669 108.954C122.464 110.732 121.468 112.201 120.714 113.313C120.005 114.335 119.597 114.89 119.563 114.867C119.529 114.845 119.872 114.248 120.521 113.187C121.235 112.049 122.178 110.545 123.319 108.726C125.703 104.973 129.031 99.8104 132.738 94.1264C134.595 91.2944 136.364 88.5964 137.981 86.1294C138.387 85.5164 138.783 84.9174 139.169 84.3334C139.599 83.6904 140.352 83.2964 141.036 83.2494C142.325 83.0864 143.533 82.9334 144.646 82.7924C146.78 82.5394 148.544 82.3304 149.879 82.1724C151.116 82.0414 151.802 81.9864 151.808 82.0264Z" fill="#455A64"/>
<path d="M140.922 93.2244C140.922 93.2244 140.047 93.0674 139.568 95.4604C139.089 97.8534 137.547 104.716 137.547 104.716L132.964 102.281L127.231 103.028C127.231 103.028 125.98 104.184 126.897 104.812C127.815 105.439 131.439 106.087 131.439 106.087L134.112 109.93L126.441 106.232C126.441 106.232 123.882 106.899 124.631 108.461C125.381 110.023 130.553 114.91 130.553 114.91L126.71 114.619L122.14 111.844C122.14 111.844 120.738 111.908 121.261 113.102C121.784 114.296 126.536 118.611 126.536 118.611L132.299 121.407C132.299 121.407 135.445 121.16 135.747 120.236C136.049 119.312 136.126 117.994 136.126 117.994C136.126 117.994 137.796 117.544 138.108 116.734C138.42 115.924 138.219 114.643 138.219 114.643C138.219 114.643 140.84 115.103 141.166 113.642C141.492 112.181 141.218 109.302 140.954 108.178C140.69 107.054 142.072 96.6064 141.964 96.2914C141.856 95.9744 142.565 92.5334 140.922 93.2244Z" fill="#FFBE9D"/>
<path d="M135.949 120.248C135.968 120.316 135.411 120.561 134.446 120.715C133.484 120.872 132.108 120.887 130.648 120.542C129.188 120.192 127.966 119.558 127.179 118.985C126.386 118.413 125.999 117.943 126.047 117.891C126.156 117.743 127.981 119.324 130.785 119.967C133.575 120.656 135.918 120.066 135.949 120.248Z" fill="#EB996E"/>
<path d="M134.583 118.181C134.493 118.314 133.472 117.779 132.382 116.884C131.29 115.99 130.565 115.094 130.678 114.98C130.794 114.862 131.687 115.553 132.756 116.428C133.824 117.304 134.676 118.044 134.583 118.181Z" fill="#EB996E"/>
<path d="M137.614 113.209C137.527 113.342 136.513 112.82 135.491 111.873C134.466 110.929 133.865 109.96 133.991 109.863C134.121 109.759 134.904 110.531 135.892 111.44C136.876 112.352 137.708 113.071 137.614 113.209Z" fill="#EB996E"/>
<path d="M140.803 109.203C140.646 109.27 140.067 108.188 139.153 107.01C138.249 105.824 137.353 104.987 137.457 104.852C137.546 104.724 138.661 105.394 139.621 106.65C140.589 107.901 140.95 109.15 140.803 109.203Z" fill="#EB996E"/>
<path d="M144.701 294.663C144.735 294.661 144.768 294.322 144.673 293.715C144.574 293.114 144.327 292.235 143.715 291.304C143.558 291.076 143.402 290.831 143.144 290.607C142.9 290.385 142.478 290.215 142.071 290.365C141.869 290.43 141.667 290.615 141.597 290.842C141.521 291.072 141.559 291.3 141.619 291.485C141.752 291.867 141.951 292.139 142.118 292.453C142.49 293.079 142.797 293.702 143.272 294.407C143.512 294.768 144.052 295.065 144.545 294.98C145.03 294.918 145.422 294.684 145.775 294.435C146.46 293.938 147.063 293.372 147.582 292.77C147.841 292.469 148.078 292.158 148.294 291.843C148.498 291.531 148.738 291.213 148.829 290.778C148.921 290.359 148.762 289.808 148.286 289.617C147.803 289.443 147.41 289.685 147.141 289.876C146.595 290.329 146.267 290.794 145.934 291.243C145.299 292.141 144.949 292.964 144.751 293.539C144.557 294.118 144.511 294.453 144.545 294.462C144.643 294.503 144.968 293.168 146.256 291.482C146.576 291.082 146.973 290.596 147.416 290.257C147.642 290.095 147.925 289.991 148.096 290.078C148.277 290.143 148.377 290.414 148.318 290.675C148.262 290.945 148.059 291.234 147.849 291.535C147.64 291.831 147.411 292.123 147.163 292.407C146.666 292.973 146.089 293.508 145.444 293.976C145.133 294.199 144.796 294.383 144.481 294.421C144.165 294.46 143.917 294.335 143.709 294.065C143.314 293.491 142.935 292.781 142.57 292.191C142.395 291.883 142.184 291.584 142.092 291.327C141.996 291.056 142.049 290.881 142.238 290.806C142.672 290.627 143.094 291.117 143.387 291.533C144.606 293.262 144.59 294.698 144.701 294.663Z" fill="#263238"/>
<path d="M120.127 295.504L107.925 321.949L88.2344 312.853L100.855 280.123L120.127 295.504Z" fill="#FFBE9D"/>
<path d="M110.23 320.185L103.101 333.78C103.101 333.78 121.35 352.649 119.636 356.867L76.7363 336.298L88.5223 309.029L110.23 320.185Z" fill="#455A64"/>
<path d="M90.7264 325.56C89.7874 325.389 88.7664 326.047 88.5564 326.978C88.3474 327.909 89.0074 328.954 89.9434 329.141C90.8794 329.329 92.1294 328.576 92.2334 327.627C92.3374 326.678 91.4944 325.494 90.5414 325.537" fill="#E0E0E0"/>
<g opacity="0.6">
<path d="M76.7363 336.298L78.5213 332.879L118.986 353.879C118.986 353.879 120.498 355.626 119.637 356.867L76.7363 336.298Z" fill="white"/>
</g>
<path d="M103.901 333.895C103.794 334.101 102.701 333.694 101.347 333.874C99.9885 334.018 99.0215 334.671 98.8685 334.495C98.6955 334.362 99.6075 333.259 101.251 333.071C102.892 332.867 104.039 333.724 103.901 333.895Z" fill="#263238"/>
<path d="M107.509 337.913C107.46 338.139 106.382 338.06 105.245 338.605C104.093 339.117 103.454 339.988 103.25 339.879C103.037 339.818 103.481 338.521 104.906 337.871C106.326 337.208 107.6 337.711 107.509 337.913Z" fill="#263238"/>
<path d="M107.482 344.524C107.27 344.477 107.481 343.291 108.569 342.402C109.651 341.505 110.856 341.526 110.861 341.743C110.897 341.972 109.966 342.283 109.084 343.027C108.184 343.748 107.7 344.603 107.482 344.524Z" fill="#263238"/>
<path d="M105.947 328.658C105.768 328.807 104.945 328.057 103.722 327.57C102.509 327.058 101.397 327.013 101.374 326.781C101.325 326.571 102.597 326.227 104.029 326.822C105.465 327.404 106.129 328.542 105.947 328.658Z" fill="#263238"/>
<path d="M114.25 316.655L146.414 236.16C146.414 236.16 145.691 222.426 143.161 218.089C140.631 213.752 64.0096 188.452 64.0096 188.452C64.0096 188.452 44.4926 183.753 31.4816 188.452C18.4706 193.15 8.71161 209.414 10.5186 218.45C12.3256 227.486 19.9516 234.123 19.9516 234.123L76.2976 235.798L107.009 247.002L86.3266 306.275L114.25 316.655Z" fill="#263238"/>
<path d="M142.857 261.65L143.583 290.766L121.899 291.296L118.775 256.356L142.857 261.65Z" fill="#FFBE9D"/>
<path d="M144.873 288.164L144.477 303.51C144.477 303.51 169.181 312.385 169.506 316.926L121.932 317.408L120.469 287.737L144.873 288.164Z" fill="#455A64"/>
<path d="M129.745 301.598C128.827 301.859 128.201 302.901 128.424 303.829C128.647 304.757 129.701 305.403 130.624 305.158C131.546 304.913 132.336 303.686 132.011 302.788C131.685 301.891 130.406 301.201 129.57 301.66" fill="#E0E0E0"/>
<g opacity="0.6">
<path d="M121.932 317.408L122.024 313.552L167.603 314.532C167.603 314.532 169.73 315.432 169.506 316.926L121.932 317.408Z" fill="white"/>
</g>
<path d="M145.245 303.26C145.24 303.492 144.079 303.609 142.944 304.368C141.789 305.097 141.209 306.109 140.995 306.019C140.78 305.976 141.113 304.584 142.504 303.69C143.886 302.783 145.293 303.046 145.245 303.26Z" fill="#263238"/>
<path d="M150.257 305.273C150.312 305.497 149.31 305.903 148.531 306.893C147.723 307.861 147.535 308.925 147.303 308.917C147.085 308.956 146.911 307.597 147.903 306.384C148.884 305.163 150.25 305.052 150.257 305.273Z" fill="#263238"/>
<path d="M153.15 311.216C152.939 311.268 152.604 310.11 153.188 308.832C153.763 307.549 154.853 307.036 154.953 307.229C155.086 307.419 154.388 308.108 153.925 309.165C153.438 310.211 153.381 311.191 153.15 311.216Z" fill="#263238"/>
<path d="M144.77 297.657C144.675 297.87 143.606 297.56 142.294 297.663C140.98 297.739 139.963 298.19 139.839 297.992C139.703 297.825 140.692 296.956 142.239 296.857C143.785 296.745 144.883 297.474 144.77 297.657Z" fill="#263238"/>
<path d="M130.195 180.815C130.195 180.815 143.187 179.776 144.632 193.872C146.078 207.968 147.497 273.748 147.497 273.748L117.137 276.278L112.439 209.053L64.0078 188.452C64.0078 188.452 121.521 179.008 130.195 180.815Z" fill="#263238"/>
<path d="M76.6476 161.794C76.6476 161.794 84.5326 183.9 83.0306 186.364C81.5286 188.828 61.2536 198.965 61.2536 198.965L10.5196 218.45C10.5196 218.45 5.30859 210.161 5.30859 197.429C5.30859 184.697 22.9556 161.794 22.9556 161.794H76.6476Z" fill="#263238"/>
<path d="M61.6095 187.324C61.6065 187.332 61.6865 187.375 61.8475 187.452C62.0335 187.538 62.2705 187.648 62.5675 187.785C63.2365 188.083 64.1755 188.5 65.3775 189.035C67.8685 190.12 71.4455 191.678 75.9235 193.629C84.9725 197.524 97.6555 202.984 112.332 209.302L112.168 209.071C112.628 215.711 113.126 222.883 113.641 230.303C114.875 247.648 116.013 263.64 116.913 276.292L116.929 276.521L117.157 276.501C126.391 275.691 133.968 275.026 139.274 274.56C141.883 274.316 143.932 274.125 145.364 273.991C146.038 273.921 146.566 273.866 146.955 273.826C147.314 273.785 147.498 273.758 147.497 273.747C147.496 273.735 147.31 273.74 146.949 273.758C146.558 273.783 146.028 273.816 145.352 273.858C143.918 273.963 141.865 274.114 139.252 274.305C133.942 274.724 126.359 275.322 117.118 276.052L117.362 276.261C116.493 263.606 115.396 247.611 114.205 230.264C113.683 222.845 113.178 215.673 112.71 209.034L112.698 208.868L112.545 208.803C97.8365 202.56 85.1255 197.164 76.0575 193.315C71.5525 191.426 67.9545 189.917 65.4495 188.867C64.2325 188.368 63.2825 187.978 62.6045 187.699C62.2995 187.579 62.0555 187.483 61.8655 187.409C61.6995 187.345 61.6125 187.317 61.6095 187.324Z" fill="#455A64"/>
<path d="M21.26 189.536C21.273 189.573 21.78 189.432 22.684 189.147C23.692 188.822 24.973 188.409 26.504 187.915C29.727 186.893 34.199 185.467 39.288 184.685C44.377 183.9 49.086 184.142 52.375 184.853C55.679 185.536 57.578 186.479 57.62 186.372C57.634 186.342 57.175 186.083 56.3 185.704C55.427 185.322 54.122 184.859 52.461 184.461C49.148 183.638 44.355 183.328 39.203 184.124C34.053 184.917 29.572 186.414 26.375 187.535C24.775 188.103 23.492 188.59 22.609 188.938C21.728 189.288 21.247 189.499 21.26 189.536Z" fill="#455A64"/>
<path d="M28.4317 177.883C28.4457 177.973 30.1307 177.644 32.8677 177.858C34.2337 177.953 35.8597 178.163 37.6697 178.372C39.4767 178.587 41.4607 178.83 43.5147 179.219C47.6367 179.953 51.1837 181.39 53.4557 182.907C55.7497 184.4 56.8247 185.761 56.9027 185.684C56.9247 185.666 56.6927 185.301 56.1657 184.73C55.6397 184.161 54.8247 183.371 53.6797 182.575C51.4197 180.939 47.7937 179.404 43.6207 178.663C41.5407 178.269 39.5407 178.04 37.7267 177.853C35.9137 177.672 34.2767 177.503 32.8877 177.457C31.5007 177.407 30.3727 177.487 29.6047 177.603C28.8357 177.72 28.4247 177.85 28.4317 177.883Z" fill="#455A64"/>
<path d="M50.8416 0.236365C45.0036 -0.755635 39.8726 1.49236 34.9486 4.78236C30.0256 8.07336 26.3176 13.0394 24.1776 18.5604C21.9226 24.3754 21.3746 30.9184 23.1066 36.9104C24.8396 42.9014 28.9426 48.2644 34.5036 51.0894C42.0976 54.9464 51.8086 53.6014 58.6026 48.4644C65.3966 43.3274 69.2806 34.8344 69.6066 26.3234C69.8306 20.4604 68.4296 14.4614 65.1536 9.59337C61.8766 4.72637 56.6476 1.08937 50.8416 0.236365Z" fill="#263238"/>
<path d="M34.2395 20.0874C35.0935 17.8544 34.7625 15.3604 35.1005 12.9934C35.8445 7.78137 40.0445 3.60137 44.9015 1.56937C49.4195 -0.320633 54.9385 0.0913646 60.3815 1.85136C64.1125 3.05736 67.6245 5.16037 70.1115 8.19137C73.4125 12.2144 74.5765 17.8974 73.1205 22.8934L46.4525 19.0094C43.9555 21.0754 41.3995 23.1754 38.3715 24.3274C37.4825 24.6654 36.5265 24.9194 35.5875 24.7714C34.6485 24.6224 33.7355 23.9844 33.5135 23.0594C33.2705 22.0504 33.8685 21.0584 34.2395 20.0874Z" fill="#263238"/>
<path d="M60.9523 9.21436L37.6693 14.1474C35.4173 14.2974 33.6543 16.1464 33.6113 18.4034L33.8913 68.7894C33.9103 72.2314 35.0643 75.5714 37.1733 78.2904L39.3933 81.1544C44.4563 87.6834 54.7113 87.0254 58.5783 79.7254C58.8483 79.2154 59.0353 78.7684 59.1143 78.4064C59.1923 77.9534 59.3123 77.6544 59.3333 77.2694L59.7773 72.3574C60.0043 67.8714 60.0353 63.3124 60.0363 63.3544C60.0363 63.3544 69.5643 62.1504 72.0053 49.8744C73.2193 43.7694 73.3023 33.6854 73.1023 25.4324C72.9233 18.0024 68.3663 8.71936 60.9523 9.21436Z" fill="#FFBE9D"/>
<path d="M69.5615 34.8864C69.5585 35.7244 68.8465 36.4124 67.9725 36.4254C67.0995 36.4384 66.3915 35.7714 66.3945 34.9334C66.3975 34.0954 67.1095 33.4064 67.9825 33.3934C68.8575 33.3814 69.5645 34.0494 69.5615 34.8864Z" fill="#263238"/>
<path d="M70.715 30.5854C70.511 30.7844 69.345 29.8494 67.64 29.7874C65.938 29.7014 64.653 30.5304 64.476 30.3144C64.388 30.2184 64.604 29.8534 65.163 29.4774C65.715 29.1034 66.644 28.7554 67.706 28.8004C68.768 28.8474 69.646 29.2734 70.144 29.6934C70.652 30.1164 70.815 30.4964 70.715 30.5854Z" fill="#263238"/>
<path d="M54.2812 34.5044C54.2782 35.3424 53.5662 36.0304 52.6922 36.0434C51.8192 36.0564 51.1122 35.3894 51.1152 34.5524C51.1182 33.7144 51.8302 33.0254 52.7032 33.0124C53.5772 32.9984 54.2842 33.6664 54.2812 34.5044Z" fill="#263238"/>
<path d="M54.5264 30.1704C54.3214 30.3694 53.1544 29.4344 51.4504 29.3734C49.7484 29.2874 48.4634 30.1154 48.2864 29.8994C48.1994 29.8034 48.4124 29.4384 48.9744 29.0634C49.5264 28.6894 50.4554 28.3404 51.5174 28.3854C52.5784 28.4324 53.4564 28.8584 53.9554 29.2784C54.4624 29.7014 54.6264 30.0814 54.5264 30.1704Z" fill="#263238"/>
<path d="M59.642 43.1354C59.638 43.0384 60.704 42.8964 62.43 42.7434C62.867 42.7154 63.283 42.6454 63.367 42.3504C63.482 42.0394 63.318 41.5634 63.127 41.0494C62.759 39.9804 62.373 38.8594 61.968 37.6844C60.364 32.8964 59.22 28.9654 59.414 28.9024C59.607 28.8394 61.065 32.6694 62.669 37.4584C63.054 38.6384 63.422 39.7644 63.773 40.8404C63.919 41.3414 64.18 41.9134 63.933 42.5574C63.803 42.8784 63.474 43.1014 63.192 43.1664C62.91 43.2404 62.665 43.2354 62.449 43.2404C60.717 43.2664 59.645 43.2324 59.642 43.1354Z" fill="#263238"/>
<path d="M60.0351 63.3534C60.0351 63.3534 51.7041 63.5664 43.6641 58.2984C43.6641 58.2984 47.4911 67.0104 59.8991 66.3344L60.0351 63.3534Z" fill="#EB996E"/>
<path d="M58.7605 47.2164C58.1785 46.3824 57.1225 45.8954 56.0515 45.9684C55.3085 46.0194 54.5475 46.3464 54.0745 46.9324C53.6015 47.5174 53.4745 48.3694 53.8605 48.9594C54.2955 49.6244 55.2505 49.8104 56.0735 49.6114C56.8965 49.4114 57.6165 48.9034 58.3025 48.3954C58.4925 48.2544 58.6865 48.1084 58.8085 47.9104C58.9315 47.7124 58.9665 47.4494 58.8305 47.2764" fill="#EB996E"/>
<path d="M54.5776 44.1204C54.8556 44.1144 54.7866 45.9654 56.3206 47.3404C57.8496 48.7194 59.8306 48.5884 59.8346 48.8474C59.8556 48.9644 59.3816 49.1904 58.5486 49.1804C57.7306 49.1764 56.5486 48.8684 55.6106 48.0274C54.6756 47.1844 54.3016 46.0934 54.2686 45.3324C54.2276 44.5544 54.4516 44.1044 54.5776 44.1204Z" fill="#263238"/>
<path d="M54.4307 25.1104C54.2447 25.5674 52.5507 25.2814 50.5417 25.4454C48.5287 25.5684 46.8937 26.0914 46.6437 25.6654C46.5327 25.4614 46.8317 25.0374 47.5007 24.6134C48.1647 24.1904 49.2127 23.8044 50.4177 23.7174C51.6237 23.6324 52.7157 23.8654 53.4327 24.1904C54.1557 24.5144 54.5107 24.8934 54.4307 25.1104Z" fill="#263238"/>
<path d="M70.507 23.1124C70.192 23.4874 69.034 23.0404 67.622 22.9664C66.213 22.8434 65.004 23.1254 64.745 22.7094C64.632 22.5084 64.835 22.1274 65.372 21.7814C65.901 21.4364 66.774 21.1714 67.743 21.2384C68.712 21.3074 69.5391 21.6904 70.0151 22.1064C70.4991 22.5224 70.647 22.9284 70.507 23.1124Z" fill="#263238"/>
<path d="M29.9705 16.4924C32.3845 9.40237 42.9235 -0.257621 50.3825 0.412379L62.1685 7.80438C61.3655 11.8544 58.1565 15.3314 54.1835 16.4554C52.0615 17.0554 49.5185 17.1814 48.2285 18.9704C46.9105 20.7964 47.6055 23.5084 46.3755 25.3944C44.6705 28.0084 40.1575 27.7934 38.8615 30.6324C38.2955 31.8734 38.5485 33.3734 37.9595 34.6034C37.1755 36.2424 32.9475 38.2554 31.2265 37.6724C29.5065 37.0894 29.5595 34.1404 29.0245 32.5844C28.1095 29.9254 28.5355 28.5654 28.8835 27.0974C29.7065 23.6194 28.8195 19.8744 29.9705 16.4924Z" fill="#263238"/>
<path d="M36.3075 39.2334C36.3405 38.3134 35.3615 36.1034 34.4585 35.9264C32.0475 35.4544 27.6675 35.4794 27.3875 41.6384C27.0055 50.0584 35.5375 48.7054 35.5635 48.4644C35.5825 48.2764 36.1915 42.4094 36.3075 39.2334Z" fill="#FFBE9D"/>
<path d="M33.1362 45.1574C33.1002 45.1284 32.9852 45.2534 32.7322 45.3554C32.4852 45.4544 32.0662 45.5124 31.6342 45.3284C30.7592 44.9614 30.0742 43.5154 30.1022 41.9964C30.1152 41.2284 30.3092 40.5064 30.6082 39.9144C30.8932 39.3104 31.3112 38.8974 31.7622 38.8394C32.2122 38.7564 32.5172 39.0384 32.6092 39.2804C32.7112 39.5214 32.6502 39.6874 32.6942 39.7034C32.7162 39.7264 32.8812 39.5704 32.8292 39.2204C32.8012 39.0514 32.7122 38.8484 32.5222 38.6774C32.3272 38.5044 32.0342 38.4064 31.7202 38.4264C31.0692 38.4424 30.4572 39.0124 30.1292 39.6624C29.7652 40.3134 29.5292 41.1244 29.5142 41.9864C29.4912 43.6854 30.2872 45.3124 31.4892 45.7194C32.0742 45.9004 32.5772 45.7444 32.8412 45.5574C33.1122 45.3604 33.1642 45.1744 33.1362 45.1574Z" fill="#EB996E"/>
<path d="M28.1693 14.3083C28.1973 11.6743 24.9073 9.95134 22.3413 9.35434C19.7753 8.75834 17.0623 9.53834 14.7523 10.8043C13.4003 11.5443 12.0393 12.5983 11.7373 14.1093C11.4343 15.6203 12.8893 17.4213 14.3323 16.8803C11.5673 17.8263 10.1653 21.5193 11.6053 24.0623C13.0453 26.6053 16.9333 27.3023 19.1663 25.4183C18.4453 27.8313 16.8713 29.9803 14.7883 31.3953C19.1193 32.0123 23.7183 30.1633 26.4153 26.7183C29.1133 23.2733 29.8063 18.3653 28.1693 14.3083Z" fill="#263238"/>
<path d="M22.324 27.7004C22.264 27.7094 22.039 26.7543 22.009 25.1733C21.975 23.5973 22.209 21.3933 22.979 19.0973C23.756 16.8023 24.904 14.9064 25.884 13.6724C26.864 12.4314 27.621 11.8073 27.664 11.8503C27.819 11.9593 24.994 14.7574 23.508 19.2754C21.958 23.7694 22.514 27.7074 22.324 27.7004Z" fill="#3F446F"/>
<path d="M59.7227 5.25837C60.4977 8.68637 65.7077 13.0824 67.9947 15.7514C72.3587 20.8434 73.2187 22.5344 73.1757 33.9184C75.2357 29.9864 76.8137 26.1344 76.6557 21.6984C76.4977 17.2624 74.8637 12.8184 71.7797 9.62637C68.6967 6.43337 64.1157 4.62137 59.7227 5.25837Z" fill="#263238"/>
<path d="M95.434 98.9424C95.434 98.9424 86.359 83.8114 83.841 80.7504C81.48 77.8804 78.438 76.1884 76.407 75.2994C75.277 74.8054 74.089 74.4654 72.874 74.2544L59.823 71.3644C59.823 71.3644 59.8 80.2724 50.466 80.8234C41.132 81.3744 33.273 68.3724 33.273 68.3724C33.273 68.3724 18.195 70.7044 14.587 72.5604C10.979 74.4164 5.309 76.7734 2.19 92.3964L0 107.68L25.999 110.083L28.487 148.717L41.381 157.696C41.381 157.696 77.127 166.989 79.411 167.604C81.695 168.218 82.452 110.083 82.452 110.083C82.452 110.083 91.634 104.147 95.434 98.9424Z" fill="#263238"/>
<path d="M78.3223 92.4454C78.3563 92.4324 78.5333 92.8294 78.8243 93.5604C79.1213 94.2884 79.5003 95.3614 79.9223 96.7034C80.7693 99.3844 81.6984 103.175 82.2244 107.441C82.7424 111.709 82.7553 115.613 82.5803 118.419C82.4943 119.822 82.3853 120.955 82.2723 121.733C82.1653 122.512 82.0893 122.94 82.0543 122.936C82.0183 122.932 82.0264 122.497 82.0714 121.715C82.1224 120.934 82.1743 119.801 82.2123 118.404C82.2923 115.609 82.2213 111.74 81.7073 107.505C81.1853 103.273 80.3213 99.5014 79.5683 96.8084C79.1943 95.4614 78.8703 94.3754 78.6323 93.6284C78.4013 92.8784 78.2883 92.4574 78.3223 92.4454Z" fill="#455A64"/>
<path d="M77.2135 155.729L28.2615 145.074L25.9995 110.085L4.23047 108.073C4.23047 108.073 5.03547 131.992 5.87347 139.104C7.07747 149.331 13.1235 163.287 16.6595 166.076C20.1965 168.864 79.4115 167.607 79.4115 167.607L77.2135 155.729Z" fill="#FFBE9D"/>
<path d="M105 162.071C104.656 162.754 103.94 163.199 103.178 163.133C103.026 163.12 102.867 163.09 102.704 163.037C101.621 162.69 101.723 160.485 101.723 160.485L96.5351 159.638C96.5351 159.638 89.7891 163.988 87.3891 166.872C84.9891 169.755 78.8661 167.42 78.8661 167.42L76.7441 156.363L86.2931 147.728C86.2931 147.728 85.7071 148.242 86.3651 146.627C87.0241 145.012 90.0241 145.623 90.0241 145.623C90.4911 144.824 92.4511 144.538 92.4511 144.538L100.827 145.503C102.553 145.702 104.096 146.672 105.024 148.14L108.566 153.747C108.566 153.747 110.437 157.783 110.136 158.722C109.682 160.138 108.184 159.823 108.184 159.823C108.184 159.823 107.772 162.477 107.075 162.569C106.378 162.661 105 162.071 105 162.071Z" fill="#FFBE9D"/>
<path d="M87.1739 154.129C87.1829 154.217 88.2969 154.114 90.0859 154.191C91.8709 154.278 94.3399 154.591 96.9209 155.47C98.2109 155.904 99.4009 156.428 100.445 156.977C101.457 157.547 102.513 158.015 102.837 158.752C103 159.113 102.927 159.48 102.746 159.75C102.569 160.02 102.328 160.197 102.114 160.284C101.674 160.465 101.389 160.341 101.38 160.392C101.359 160.404 101.64 160.622 102.182 160.48C102.444 160.409 102.747 160.234 102.99 159.922C103.239 159.626 103.382 159.097 103.188 158.611C103.007 158.123 102.591 157.745 102.146 157.434C101.69 157.135 101.212 156.83 100.68 156.543C99.6259 155.958 98.4129 155.408 97.0919 154.963C94.4499 154.063 91.9089 153.803 90.0939 153.812C88.2709 153.833 87.1649 154.071 87.1739 154.129Z" fill="#EB996E"/>
<path d="M86.5879 159.47C86.5979 159.629 90.0059 159.486 94.1939 159.732C98.3839 159.962 101.754 160.489 101.781 160.333C101.793 160.264 100.964 160.043 99.5999 159.803C98.2369 159.563 96.3359 159.319 94.2239 159.198C92.1129 159.079 90.1969 159.106 88.8149 159.19C87.4329 159.275 86.5839 159.4 86.5879 159.47Z" fill="#EB996E"/>
<path d="M104.951 161.859C104.979 161.854 105.016 161.545 105.056 160.967C105.091 160.391 105.126 159.553 105.061 158.514C105.026 157.995 104.97 157.424 104.827 156.815C104.694 156.203 104.402 155.559 104.004 154.99C103.249 153.848 102.2 152.664 100.865 151.776C99.5354 150.899 98.2054 150.158 96.8594 149.751C95.5234 149.347 94.2744 149.247 93.2414 149.2C92.2054 149.164 91.3714 149.186 90.7954 149.208C90.2194 149.232 89.9014 149.262 89.9004 149.299C89.8964 149.385 91.1774 149.428 93.2174 149.577C94.2324 149.67 95.4454 149.809 96.7124 150.22C97.9694 150.623 99.2764 151.367 100.562 152.215C101.85 153.076 102.83 154.16 103.598 155.268C104.408 156.324 104.559 157.536 104.684 158.546C104.887 160.575 104.836 161.862 104.951 161.859Z" fill="#EB996E"/>
<path d="M92.8535 146.665C92.8525 146.745 94.1065 146.778 96.1085 147.008C98.0355 147.303 101.12 147.445 102.877 150.101C104.779 152.517 106.397 154.799 107.104 156.671C107.854 158.53 107.788 159.816 107.897 159.807C107.926 159.808 107.975 159.492 107.946 158.919C107.922 158.347 107.799 157.513 107.458 156.54C106.815 154.565 105.207 152.197 103.294 149.767C102.806 149.157 102.278 148.578 101.666 148.121C101.056 147.655 100.347 147.384 99.6945 147.195C98.3735 146.822 97.1585 146.713 96.1445 146.631C94.1105 146.496 92.8525 146.598 92.8535 146.665Z" fill="#EB996E"/>
<path d="M89.2206 165.087C89.2316 165.099 89.4026 164.969 89.7176 164.707C90.0766 164.419 90.5416 164.046 91.1196 163.581C92.3566 162.624 94.1956 161.263 96.6246 159.789L96.5056 159.812C98.0526 160.075 99.7976 160.373 101.688 160.694L101.51 160.475C101.499 160.898 101.523 161.312 101.607 161.742C101.694 162.164 101.829 162.619 102.195 162.989C102.385 163.169 102.658 163.276 102.883 163.305C103.114 163.364 103.364 163.387 103.612 163.348C104.107 163.277 104.572 163.017 104.902 162.634C104.987 162.54 105.06 162.435 105.128 162.327L105.175 162.244L105.198 162.202L105.21 162.181L105.211 162.178C105.278 162.152 104.632 162.389 104.907 162.289L104.913 162.291L104.924 162.295L105.088 162.362C105.307 162.449 105.529 162.528 105.758 162.599C105.987 162.67 106.221 162.733 106.468 162.776C106.592 162.797 106.718 162.815 106.853 162.818C106.979 162.823 107.131 162.827 107.333 162.725C107.625 162.517 107.73 162.271 107.841 162.039C107.945 161.804 108.029 161.566 108.099 161.326C108.242 160.845 108.346 160.361 108.432 159.858L108.129 160.068C108.802 160.186 109.595 160.024 110.061 159.409C110.271 159.123 110.443 158.77 110.417 158.365C110.4 158.002 110.319 157.684 110.233 157.362C109.87 156.09 109.357 154.869 108.803 153.632L108.796 153.618L108.786 153.602C108.184 152.648 107.544 151.635 106.898 150.611C106.496 149.974 106.096 149.343 105.7 148.716C105.302 148.109 104.945 147.426 104.386 146.88C103.848 146.336 103.202 145.911 102.506 145.631C101.815 145.333 101.047 145.259 100.37 145.187C97.5946 144.875 94.9486 144.577 92.4746 144.299L92.4406 144.295L92.4126 144.3C91.9276 144.382 91.4736 144.496 91.0276 144.665C90.5936 144.84 90.1336 145.038 89.8246 145.506L90.1146 145.415C89.2276 145.051 88.2006 145.047 87.4246 145.565C86.6446 146.078 86.2846 146.907 86.0936 147.686L86.1566 147.577C83.4146 150.043 81.1766 152.055 79.5756 153.495C78.8376 154.175 78.2476 154.718 77.8026 155.128C77.4016 155.507 77.1966 155.712 77.2096 155.727C77.2226 155.742 77.4526 155.564 77.8786 155.214C78.3416 154.824 78.9546 154.307 79.7216 153.66C81.3506 152.253 83.6276 150.285 86.4186 147.874L86.4636 147.835L86.4816 147.764C86.6576 147.077 87.0116 146.321 87.6556 145.923C88.2816 145.501 89.1806 145.514 89.9236 145.825L90.1066 145.902L90.2146 145.734C90.3936 145.455 90.7916 145.245 91.1906 145.099C91.5946 144.949 92.0406 144.841 92.4806 144.77L92.4196 144.771C94.8916 145.063 97.5366 145.375 100.31 145.702C101.017 145.78 101.678 145.845 102.309 146.118C102.938 146.373 103.522 146.759 104.008 147.252C104.502 147.729 104.838 148.37 105.249 149C105.645 149.627 106.044 150.259 106.446 150.896C107.094 151.92 107.734 152.933 108.336 153.886L108.32 153.856C108.865 155.066 109.379 156.289 109.728 157.5C109.81 157.8 109.885 158.11 109.897 158.385C109.925 158.623 109.804 158.88 109.65 159.096C109.349 159.521 108.742 159.655 108.231 159.572L107.97 159.529L107.928 159.781C107.849 160.255 107.749 160.734 107.617 161.185C107.492 161.612 107.305 162.132 107.075 162.306C107.063 162.312 106.974 162.34 106.864 162.329C106.763 162.328 106.654 162.314 106.547 162.296C106.331 162.26 106.112 162.203 105.897 162.138C105.682 162.073 105.468 161.999 105.26 161.918L105.106 161.856L105.097 161.852L105.093 161.85C105.366 161.75 104.718 161.985 104.785 161.962L104.784 161.964L104.775 161.981L104.757 162.014L104.721 162.08C104.668 162.165 104.611 162.248 104.545 162.323C104.287 162.628 103.923 162.832 103.545 162.89C103.356 162.922 103.166 162.905 102.975 162.857C102.768 162.828 102.63 162.77 102.501 162.659C102.007 162.144 101.936 161.225 101.933 160.493L101.932 160.301L101.755 160.273C99.8606 159.977 98.1116 159.704 96.5606 159.462L96.4936 159.452L96.4406 159.485C94.0116 161.014 92.2036 162.421 90.9966 163.43C90.3956 163.938 89.9446 164.346 89.6496 164.631C89.3576 164.92 89.2086 165.075 89.2206 165.087Z" fill="#EB996E"/>
<path d="M168.514 129.905L104.035 130.429C101.943 130.429 99.9445 131.434 99.6305 133.502L92.5835 180.497H59.3715C58.3025 180.497 57.4355 181.364 57.4355 182.433C57.4355 183.502 58.3025 184.369 59.3715 184.369H92.0025H98.1965H165.446L172.695 134.77C173.085 132.21 171.103 129.905 168.514 129.905Z" fill="#E0E0E0"/>
<path d="M168.514 129.905C168.514 129.905 168.865 129.86 169.53 130C170.175 130.15 171.192 130.549 171.993 131.633C172.392 132.164 172.696 132.873 172.79 133.691C172.895 134.521 172.657 135.397 172.553 136.343C172.283 138.242 171.972 140.43 171.623 142.888C170.204 152.741 168.159 166.94 165.644 184.397L165.619 184.567H165.446C137.998 184.583 101.927 184.605 62.5377 184.628C61.6127 184.628 60.6897 184.628 59.7677 184.628C59.3407 184.646 58.7457 184.621 58.3027 184.349C57.8447 184.097 57.4887 183.674 57.3107 183.185C56.9247 182.201 57.3857 180.996 58.3117 180.507C58.7537 180.24 59.3427 180.217 59.7647 180.234H61.1287C64.7617 180.235 68.3577 180.235 71.9067 180.236C79.0057 180.238 85.9197 180.241 92.5827 180.243L92.3347 180.457C94.8707 163.627 97.2367 147.927 99.3597 133.842C99.4327 132.95 99.8367 131.985 100.553 131.387C101.253 130.766 102.139 130.436 103.018 130.299C103.915 130.163 104.769 130.236 105.618 130.207C106.469 130.201 107.313 130.195 108.15 130.19C111.498 130.167 114.736 130.146 117.857 130.125C124.097 130.085 129.868 130.049 135.109 130.016C145.578 129.962 153.923 129.92 159.669 129.89C162.524 129.885 164.73 129.881 166.24 129.878C166.977 129.882 167.541 129.884 167.937 129.886C168.319 129.892 168.514 129.905 168.514 129.905C168.514 129.905 168.32 129.921 167.938 129.932C167.542 129.94 166.979 129.952 166.242 129.967C164.733 129.989 162.527 130.021 159.672 130.062C153.926 130.126 145.581 130.219 135.113 130.335C129.873 130.387 124.102 130.444 117.862 130.506C114.741 130.536 111.503 130.567 108.155 130.598C107.318 130.606 106.474 130.614 105.623 130.622C104.775 130.651 103.902 130.585 103.087 130.715C102.267 130.844 101.455 131.154 100.838 131.707C100.204 132.259 99.8687 133.028 99.7887 133.908C97.6867 147.996 95.3447 163.699 92.8327 180.533L92.8007 180.747H92.5847C85.9217 180.749 79.0067 180.752 71.9087 180.754C68.3597 180.755 64.7637 180.755 61.1307 180.756H59.7667C59.2857 180.743 58.9267 180.762 58.5657 180.964C57.8587 181.338 57.5067 182.257 57.8017 183.007C57.9367 183.379 58.2087 183.704 58.5587 183.895C58.9217 184.101 59.2837 184.121 59.7707 184.107C60.6917 184.107 61.6147 184.107 62.5407 184.107C101.93 184.13 138.001 184.152 165.449 184.168L165.252 184.338C167.839 166.892 169.944 152.701 171.404 142.854C171.773 140.398 172.101 138.214 172.386 136.317C172.5 135.367 172.744 134.496 172.649 133.705C172.567 132.913 172.282 132.222 171.901 131.7C171.136 130.633 170.15 130.223 169.518 130.056C168.865 129.901 168.512 129.931 168.514 129.905Z" fill="#263238"/>
<path d="M133.539 160.576C135.769 160.576 137.576 158.769 137.576 156.539C137.576 154.31 135.769 152.502 133.539 152.502C131.309 152.502 129.502 154.31 129.502 156.539C129.502 158.769 131.309 160.576 133.539 160.576Z" fill="white"/>
<path d="M95.1984 183.935C95.2894 183.95 97.3424 171.983 99.7814 157.21C102.222 142.432 104.126 130.444 104.035 130.428C103.944 130.413 101.892 142.377 99.4514 157.155C97.0124 171.929 95.1074 183.92 95.1984 183.935Z" fill="#263238"/>
</svg>
