<svg width="48" height="48" viewBox="0 0 48 48" fill="none" xmlns="http://www.w3.org/2000/svg">
<g clip-path="url(#clip0_260_1588)">
<path d="M47.2969 40.6512H46.0528V15.3907C46.0528 13.5405 44.5472 12.0353 42.6966 12.0353H41.045C41.2255 11.6575 41.3251 11.2385 41.3251 10.803C41.3251 9.74269 40.7432 8.77556 39.8063 8.27897L30.6123 3.40866C30.2692 3.22678 29.8435 3.35766 29.6618 3.70088C29.4801 4.044 29.6109 4.46953 29.9541 4.65131L39.1479 9.52153C39.6307 9.77738 39.9188 10.2564 39.9188 10.803C39.9188 11.3496 39.6307 11.8285 39.1481 12.0843L30.2107 16.8188L24.5288 10.3394C24.2727 10.0474 23.8284 10.0183 23.5365 10.2743C23.2446 10.5304 23.2154 10.9747 23.4714 11.2666L28.9337 17.4954L25.5519 19.2869C24.5802 19.8009 23.4201 19.8009 22.4486 19.2871L8.85206 12.0845C8.36944 11.8286 8.08116 11.3496 8.08116 10.8031C8.08116 10.2566 8.36934 9.77756 8.85188 9.52172L22.4482 2.3191C23.4199 1.80497 24.58 1.80497 25.5514 2.31891L27.4976 3.35016C27.8408 3.53203 28.2664 3.40125 28.4482 3.05813C28.6299 2.715 28.4992 2.28938 28.1561 2.1076L26.2095 1.07616C24.8259 0.344064 23.1739 0.344064 21.7902 1.07625L8.19347 8.27916C7.25681 8.77566 6.675 9.74278 6.675 10.8031C6.675 11.2386 6.77456 11.6575 6.95513 12.0354H5.30344C3.45281 12.0354 1.94719 13.5406 1.94719 15.3908V40.6513H0.703125C0.314812 40.6513 0 40.9661 0 41.3544V42.9128C0 45.4273 2.04562 47.473 4.56009 47.473H43.4398C45.9543 47.473 48 45.4274 48 42.9128V41.3544C48 40.966 47.6852 40.6512 47.2969 40.6512ZM30.0484 28.4528L30.9652 30.0408C31.1546 30.369 31.0283 30.6588 30.9652 30.7681C30.9021 30.8774 30.7143 31.1317 30.3352 31.1317H29.7614C29.3824 31.1317 29.1947 30.8774 29.1315 30.7681C29.0683 30.6587 28.942 30.369 29.1315 30.0408L30.0484 28.4528ZM30.7515 18.1238L33.6609 16.5826V19.3748C33.6609 21.3801 32.5277 23.1778 30.7515 24.0315V18.1238ZM23.9999 21.0789C24.7588 21.0789 25.5179 20.8958 26.2098 20.5298L29.3452 18.8689V24.5755C25.5036 25.8481 21.2532 25.7052 17.5035 24.1467C15.5812 23.3478 14.3391 21.4747 14.3391 19.3748V16.5825L21.7906 20.5299C22.4823 20.896 23.241 21.0789 23.9999 21.0789ZM3.35344 15.3907C3.35344 14.3159 4.22822 13.4416 5.30344 13.4416H8.41003L11.9494 15.3166H5.93156C5.54325 15.3166 5.22844 15.6314 5.22844 16.0197V38.0735C5.22844 38.4618 5.54325 38.7766 5.93156 38.7766H9.64313C10.0314 38.7766 10.3463 38.4618 10.3463 38.0735C10.3463 37.6852 10.0314 37.3703 9.64313 37.3703H6.63469V16.7228H12.9328V19.3748C12.9328 22.0447 14.515 24.4274 16.9639 25.4452C19.1996 26.3745 21.5998 26.8391 24.0001 26.8391C25.8052 26.8391 27.6101 26.5762 29.3453 26.0506V26.8582L27.9138 29.3377C27.5281 30.0056 27.5281 30.8032 27.9138 31.4712C28.2995 32.1392 28.9901 32.538 29.7615 32.538H30.3353C31.1067 32.538 31.7974 32.1392 32.1831 31.4712C32.5688 30.8032 32.5688 30.0056 32.1831 29.3377L30.7515 26.8582V25.5593C30.8466 25.5217 30.9417 25.4845 31.0362 25.4452C33.485 24.4274 35.0672 22.0447 35.0672 19.3748V16.7228H41.3653V37.3703H12.4556C12.0673 37.3703 11.7525 37.6852 11.7525 38.0735C11.7525 38.4618 12.0673 38.7766 12.4556 38.7766H42.0684C42.4568 38.7766 42.7716 38.4618 42.7716 38.0735V16.0197C42.7716 15.6314 42.4568 15.3166 42.0684 15.3166H36.0505L39.5899 13.4416H42.6965C43.7717 13.4416 44.6465 14.3159 44.6465 15.3907V40.6512H3.35344V15.3907ZM28.3481 42.0578C28.0883 42.8139 27.3699 43.3589 26.5268 43.3589H21.4733C20.6301 43.3589 19.9117 42.8139 19.6519 42.0578H28.3481ZM46.5938 42.9127C46.5938 44.6518 45.1789 46.0667 43.4398 46.0667H4.56009C2.82103 46.0667 1.40625 44.6518 1.40625 42.9127V42.0575H2.64309C2.64553 42.0575 2.64788 42.0578 2.65031 42.0578H18.2013C18.4943 43.5974 19.8496 44.7652 21.4733 44.7652H26.5268C28.1504 44.7652 29.5057 43.5973 29.7987 42.0578H45.3497C45.3521 42.0578 45.3545 42.0575 45.3569 42.0575H46.5938V42.9127Z" fill="#6CC118"/>
<path d="M24.2128 34.7922C24.2128 34.4039 23.898 34.0891 23.5097 34.0891H9.43359C9.04528 34.0891 8.73047 34.4039 8.73047 34.7922C8.73047 35.1805 9.04528 35.4954 9.43359 35.4954H23.5098C23.898 35.4954 24.2128 35.1805 24.2128 34.7922Z" fill="#6CC118"/>
<path d="M9.43359 32.5381H18.8452C19.2335 32.5381 19.5483 32.2233 19.5483 31.835C19.5483 31.4466 19.2335 31.1318 18.8452 31.1318H9.43359C9.04528 31.1318 8.73047 31.4466 8.73047 31.835C8.73047 32.2233 9.04519 32.5381 9.43359 32.5381Z" fill="#6CC118"/>
</g>
<defs>
<clipPath id="clip0_260_1588">
<rect width="48" height="48" fill="white"/>
</clipPath>
</defs>
</svg>
